<svg xmlns="http://www.w3.org/2000/svg" width="90" height="53" viewBox="0 0 90 53">
    <g fill="none" fill-rule="evenodd">
        <path stroke="#4C4760" stroke-linecap="round" stroke-linejoin="round" stroke-width="6" d="M17.142 7.618A4.618 4.618 0 0 1 21.759 3h60.03a4.619 4.619 0 0 1 0 9.236H21.76a4.618 4.618 0 0 1-4.617-4.618zM17.142 44.56a4.617 4.617 0 0 1 4.617-4.618h20.78a4.618 4.618 0 1 1 0 9.235h-20.78a4.617 4.617 0 0 1-4.617-4.617zM17.142 26.089a4.618 4.618 0 0 1 4.617-4.618h36.943a4.618 4.618 0 0 1 0 9.236H21.759a4.618 4.618 0 0 1-4.617-4.618z"/>
        <path fill="#FF9300" d="M0 44.56a4.617 4.617 0 1 1 9.234-.002A4.617 4.617 0 0 1 0 44.56M0 25.948a4.618 4.618 0 1 1 9.236 0 4.618 4.618 0 0 1-9.236 0M0 7.563a4.618 4.618 0 1 1 9.236-.001 4.618 4.618 0 0 1-9.236 0"/>
    </g>
</svg>
