<svg xmlns="http://www.w3.org/2000/svg" width="98" height="82" viewBox="0 0 98 82">
    <g fill="none" fill-rule="evenodd">
        <path stroke="#4C4760" stroke-linecap="round" stroke-linejoin="round" stroke-width="6" d="M90.724 60.807c1.724-2.19 2.716-4.088 2.716-4.918 0-2.59-9.567-15.54-21.366-15.54-.572 0-1.134.056-1.694.114M53.42 50.974c-1.723 2.189-2.713 4.085-2.713 4.915 0 2.59 9.567 15.539 21.366 15.539.57 0 1.13-.055 1.688-.112"/>
        <path stroke="#FF9300" stroke-linecap="round" stroke-width="8" d="M50.707 34.526l42.732 42.731"/>
        <path stroke="#4C4760" stroke-linecap="round" stroke-linejoin="round" stroke-width="6" d="M24.366 3C12.567 3 3 15.95 3 18.54s9.567 15.538 21.366 15.538c11.8 0 21.366-12.949 21.366-15.539S36.165 3 24.366 3z"/>
        <path fill="#FF9300" d="M24.366 26.844a8.306 8.306 0 1 1 .001-16.611 8.306 8.306 0 0 1 0 16.611"/>
    </g>
</svg>
